# xmcd
#
# Track frame offsets: 
#        182
#        32285
#        95812
#        126920
#        130832
#
# Disc length: 1768 seconds
#
# Revision: 0
# Processed by: cddbd v1.5.2PL0 Copyright (c) Steve Scherf et al.
# Submitted via: ExactAudioCopy v0.95a3
#
DISCID=3c06e605
DTITLE=4 Runner - Meet 4 Runner
DYEAR=1995
DGENRE=Country
TTITLE0=Getting it Together
TTITLE1=A Breakthrough Single
TTITLE2=A Heart With 4 Wheel Drive
TTITLE3=Promo1
TTITLE4=Promo2
EXTD=
EXTT0=
EXTT1=
EXTT2=
EXTT3=
EXTT4=
PLAYORDER=
